<svg width="61" height="73" xmlns="http://www.w3.org/2000/svg"><g fill="#444" fill-rule="nonzero"><path d="M60.24 13.159c-.456-1.707-.76-2.655-.76-2.655-.492-1.763-1.744-1.763-3.602-2.066L45.81 7.168c-1.252-.21-1.252-.21-1.745-1.29C42.415 2.162 41.904 0 40.103 0h-19.53c-1.802 0-2.295 2.162-3.944 5.897-.493 1.062-.493 1.062-1.745 1.29L4.797 8.456c-1.84.303-3.166.474-3.66 2.237 0 0-.227.777-.7 2.465-.608 2.256-.854 2.01 1.232 2.01h57.338c2.085.019 1.858.246 1.232-2.01zM53.736 21.236H6.94c-3.148 0-3.3.418-3.11 2.788l3.546 46c.303 2.331.53 2.805 3.318 2.805h39.287c2.788 0 3.015-.474 3.318-2.806l3.546-46c.19-2.388.038-2.787-3.11-2.787z"/></g></svg>